<svg width="222" height="195" viewBox="0 0 222 195" fill="none" xmlns="http://www.w3.org/2000/svg">
<path fill-rule="evenodd" clip-rule="evenodd" d="M219.83 178.791C207.812 158.928 186.28 163.894 182.441 186.24V186.571L181.606 186.24C167.084 180.943 152.395 185.743 137.039 186.074C144.05 184.088 146.887 180.115 147.388 178.295C148.389 175.646 145.218 173.991 143.716 176.639C140.211 181.44 123.686 189.219 112.669 178.626C111.501 177.798 112.836 172.17 115.006 174.322C117.677 177.301 128.86 179.122 135.704 170.018C138.041 167.37 134.702 162.901 131.531 167.701C129.361 170.349 125.856 173.825 119.513 172.17C117.677 171.673 114.171 167.866 116.008 166.377C116.842 165.549 119.346 163.232 120.347 161.907C121.349 160.418 121.349 156.776 115.507 159.425C112.001 160.418 107.495 161.08 102.821 158.1C100.15 155.948 97.6466 157.769 98.815 160.749C100.985 166.873 106.66 166.542 106.159 167.866C105.492 170.515 93.6406 177.963 88.6331 167.204C87.2977 164.225 82.6241 165.052 84.1263 169.025C86.6301 176.143 97.9804 179.95 104.323 175.315C106.994 173.329 107.829 174.984 107.328 176.474C105.492 181.44 84.794 191.371 73.7774 175.977C71.7744 173.494 69.6045 176.143 70.4391 177.467C78.1173 192.033 98.4812 190.709 109.331 181.44C115.507 188.888 123.686 188.723 127.525 189.219C90.803 202.958 64.9308 187.895 60.0902 187.895C60.0902 187.895 52.412 184.419 44.0662 186.24C40.0601 166.542 20.6977 157.769 7.6782 178.626C3.67218 159.921 5.50827 133.106 24.203 107.946C8.17895 81.296 2.16993 47.5286 10.015 22.0375C26.5398 40.411 45.0677 46.5355 62.9278 81.296C66.7669 79.1442 74.612 77.3234 78.1173 76.4957C48.406 30.3139 0.834586 5.31936 0 0.0225137C30.0451 -0.970645 62.9278 31.1415 81.4556 47.5286C91.6376 40.742 130.195 43.3905 138.041 47.5286C149.725 33.4589 198.131 -3.12249 222 0.850146C205.475 15.9131 172.426 27.9965 143.716 76.4957C148.723 77.82 155.4 80.3029 158.071 81.296C159.907 77.3234 166.583 56.6326 213.821 22.0375C223.836 50.177 209.648 79.6408 197.964 104.139L197.797 104.47C218.829 130.954 221.666 149.658 219.83 178.791ZM77.7835 150.652C89.4677 158.431 92.6391 144.858 86.6301 139.561C75.2797 129.63 71.7744 125.161 48.5729 121.188C43.5654 120.691 29.2105 119.864 32.7158 127.809C39.5594 138.899 47.4045 134.927 57.0857 138.899C68.7699 142.706 75.6135 148.996 77.7835 150.652ZM163.913 139.23C173.761 135.258 181.439 139.23 188.45 128.14C191.788 120.195 177.433 121.022 172.426 121.519C149.391 125.492 145.719 129.961 134.535 139.892C128.359 145.189 131.531 158.762 143.215 150.983C145.385 149.327 152.229 143.037 163.913 139.23Z" fill="white"/>
</svg>
